<?xml version="1.0" encoding="UTF-8"?>
<svg width="138px" height="202px" viewBox="0 0 138 202" version="1.1" xmlns="http://www.w3.org/2000/svg" xmlns:xlink="http://www.w3.org/1999/xlink">
    <!-- Generator: Sketch 46 (44423) - http://www.bohemiancoding.com/sketch -->
    <title>Group 3</title>
    <desc>Created with Sketch.</desc>
    <defs></defs>
    <g id="Page-1" stroke="none" stroke-width="1" fill="none" fill-rule="evenodd">
        <g id="Artboard" transform="translate(-76.000000, -46.000000)">
            <g id="Group-3" transform="translate(76.000000, 45.000000)">
                <circle id="Oval-2" fill="#FFFFFF" cx="69" cy="127" r="62"></circle>
                <circle id="Oval-3" fill="#0C76F9" cx="71" cy="127" r="42"></circle>
                <g id="baLogo" fill-rule="nonzero">
                    <g id="Group-2" fill="#333333">
                        <path d="M69,196 C30.8923523,196 0,165.107648 0,127 C0,88.8923523 30.8923523,58 69,58 C107.107648,58 138,88.8923523 138,127 C138,165.107648 107.107648,196 69,196 Z M69,186 C101.5848,186 128,159.5848 128,127 C128,94.4151998 101.5848,68 69,68 C36.4151998,68 10,94.4151998 10,127 C10,159.5848 36.4151998,186 69,186 Z" id="Oval"></path>
                        <path d="M69,176 C41.9380473,176 20,154.061953 20,127 C20,99.9380473 41.9380473,78 69,78 C96.0619527,78 118,99.9380473 118,127 C118,154.061953 96.0619527,176 69,176 Z M69,166 C90.5391052,166 108,148.539105 108,127 C108,105.460895 90.5391052,88 69,88 C47.4608948,88 30,105.460895 30,127 C30,148.539105 47.4608948,166 69,166 Z" id="Oval"></path>
                        <polygon id="Line-2" points="108 127.951845 108 201.071334 118 201.071334 118 127.951845"></polygon>
                        <polygon id="Line-2" points="128 127.951845 128 201.071334 138 201.071334 138 127.951845"></polygon>
                        <polygon id="Line-2" points="0.333333333 0.999541567 0.333333333 132.185529 10.3333333 132.185529 10.3333333 0.999541567"></polygon>
                        <polygon id="Line-2" points="20.3333333 0.998001357 20.3333333 122.185529 30.3333333 122.185529 30.3333333 0.998001357"></polygon>
                    </g>
                    <g id="Group" transform="translate(10.000000, 2.000000)" fill="#FFFFFF">
                        <polygon id="Line-2" points="108 126.951845 108 200.071334 118 200.071334 118 126.951845"></polygon>
                        <polygon id="Line-2" points="0.333333333 0 0.333333333 119.185529 10.3333333 119.185529 10.3333333 0"></polygon>
                    </g>
                </g>
                <circle id="Oval-4" fill="#FFFFFF" cx="69.5" cy="127.5" r="20.5"></circle>
                <circle id="Oval-5" fill="#333333" cx="69" cy="128" r="7"></circle>
            </g>
        </g>
    </g>
</svg>